<mxfile host="app.diagrams.net" modified="2022-09-02T01:46:18.207Z" agent="5.0 (Windows NT 10.0; Win64; x64) AppleWebKit/537.36 (KHTML, like Gecko) Chrome/104.0.0.0 Safari/537.36" etag="bhBifmBfq6zPwkbfwTD9" version="20.2.8" type="github">
  <diagram id="R2VjNA3YWO86Iqp2hwTT" name="PÃ¡gina-1">
    <mxGraphModel dx="422" dy="525" grid="1" gridSize="10" guides="1" tooltips="1" connect="1" arrows="1" fold="1" page="1" pageScale="1" pageWidth="827" pageHeight="1169" math="0" shadow="0">
      <root>
        <mxCell id="0" />
        <mxCell id="1" parent="0" />
        <mxCell id="T-6fgTQiSkieGNRxP6uY-3" value="" style="group" vertex="1" connectable="0" parent="1">
          <mxGeometry x="300" y="20" width="80" height="120" as="geometry" />
        </mxCell>
        <mxCell id="T-6fgTQiSkieGNRxP6uY-1" value="" style="rounded=0;whiteSpace=wrap;html=1;" vertex="1" parent="T-6fgTQiSkieGNRxP6uY-3">
          <mxGeometry width="80" height="120" as="geometry" />
        </mxCell>
        <mxCell id="T-6fgTQiSkieGNRxP6uY-2" value="" style="triangle;whiteSpace=wrap;html=1;" vertex="1" parent="T-6fgTQiSkieGNRxP6uY-3">
          <mxGeometry y="90" width="20" height="20" as="geometry" />
        </mxCell>
        <mxCell id="T-6fgTQiSkieGNRxP6uY-4" value="" style="group" vertex="1" connectable="0" parent="1">
          <mxGeometry x="300" y="180" width="80" height="120" as="geometry" />
        </mxCell>
        <mxCell id="T-6fgTQiSkieGNRxP6uY-5" value="" style="rounded=0;whiteSpace=wrap;html=1;" vertex="1" parent="T-6fgTQiSkieGNRxP6uY-4">
          <mxGeometry width="80" height="120" as="geometry" />
        </mxCell>
        <mxCell id="T-6fgTQiSkieGNRxP6uY-6" value="" style="triangle;whiteSpace=wrap;html=1;" vertex="1" parent="T-6fgTQiSkieGNRxP6uY-4">
          <mxGeometry y="90" width="20" height="20" as="geometry" />
        </mxCell>
        <mxCell id="T-6fgTQiSkieGNRxP6uY-9" style="edgeStyle=orthogonalEdgeStyle;rounded=0;orthogonalLoop=1;jettySize=auto;html=1;exitX=1;exitY=0.25;exitDx=0;exitDy=0;endArrow=none;endFill=0;" edge="1" parent="1" source="T-6fgTQiSkieGNRxP6uY-5">
          <mxGeometry relative="1" as="geometry">
            <mxPoint x="440" y="210" as="targetPoint" />
          </mxGeometry>
        </mxCell>
        <mxCell id="T-6fgTQiSkieGNRxP6uY-17" value="" style="group" vertex="1" connectable="0" parent="1">
          <mxGeometry x="434" y="196" width="55" height="30" as="geometry" />
        </mxCell>
        <mxCell id="T-6fgTQiSkieGNRxP6uY-15" value="" style="group" vertex="1" connectable="0" parent="T-6fgTQiSkieGNRxP6uY-17">
          <mxGeometry x="5" y="5" width="50" height="20" as="geometry" />
        </mxCell>
        <mxCell id="T-6fgTQiSkieGNRxP6uY-10" value="" style="endArrow=none;html=1;rounded=0;" edge="1" parent="T-6fgTQiSkieGNRxP6uY-15">
          <mxGeometry width="50" height="50" relative="1" as="geometry">
            <mxPoint as="sourcePoint" />
            <mxPoint x="40" as="targetPoint" />
          </mxGeometry>
        </mxCell>
        <mxCell id="T-6fgTQiSkieGNRxP6uY-11" value="" style="endArrow=none;html=1;rounded=0;" edge="1" parent="T-6fgTQiSkieGNRxP6uY-15">
          <mxGeometry width="50" height="50" relative="1" as="geometry">
            <mxPoint y="20" as="sourcePoint" />
            <mxPoint x="40" y="20" as="targetPoint" />
          </mxGeometry>
        </mxCell>
        <mxCell id="T-6fgTQiSkieGNRxP6uY-12" value="" style="endArrow=none;html=1;rounded=0;" edge="1" parent="T-6fgTQiSkieGNRxP6uY-15">
          <mxGeometry width="50" height="50" relative="1" as="geometry">
            <mxPoint x="50" y="10" as="sourcePoint" />
            <mxPoint x="40" as="targetPoint" />
          </mxGeometry>
        </mxCell>
        <mxCell id="T-6fgTQiSkieGNRxP6uY-13" value="" style="endArrow=none;html=1;rounded=0;" edge="1" parent="T-6fgTQiSkieGNRxP6uY-15">
          <mxGeometry width="50" height="50" relative="1" as="geometry">
            <mxPoint x="40" y="20" as="sourcePoint" />
            <mxPoint x="50" y="10" as="targetPoint" />
          </mxGeometry>
        </mxCell>
        <mxCell id="T-6fgTQiSkieGNRxP6uY-14" value="" style="endArrow=none;html=1;rounded=0;" edge="1" parent="T-6fgTQiSkieGNRxP6uY-15">
          <mxGeometry width="50" height="50" relative="1" as="geometry">
            <mxPoint y="20" as="sourcePoint" />
            <mxPoint as="targetPoint" />
          </mxGeometry>
        </mxCell>
        <mxCell id="T-6fgTQiSkieGNRxP6uY-16" value="o_y0" style="text;html=1;align=center;verticalAlign=middle;resizable=0;points=[];autosize=1;strokeColor=none;fillColor=none;" vertex="1" parent="T-6fgTQiSkieGNRxP6uY-17">
          <mxGeometry width="50" height="30" as="geometry" />
        </mxCell>
        <mxCell id="T-6fgTQiSkieGNRxP6uY-20" style="edgeStyle=orthogonalEdgeStyle;rounded=0;orthogonalLoop=1;jettySize=auto;html=1;exitX=1;exitY=0.5;exitDx=0;exitDy=0;endArrow=classic;endFill=1;entryX=0;entryY=0.25;entryDx=0;entryDy=0;" edge="1" parent="1" source="T-6fgTQiSkieGNRxP6uY-19" target="T-6fgTQiSkieGNRxP6uY-5">
          <mxGeometry relative="1" as="geometry">
            <mxPoint x="300" y="201" as="targetPoint" />
          </mxGeometry>
        </mxCell>
        <mxCell id="T-6fgTQiSkieGNRxP6uY-19" value="&lt;font style=&quot;font-size: 25px;&quot;&gt;+&lt;/font&gt;" style="ellipse;whiteSpace=wrap;html=1;aspect=fixed;" vertex="1" parent="1">
          <mxGeometry x="200" y="185" width="50" height="50" as="geometry" />
        </mxCell>
        <mxCell id="T-6fgTQiSkieGNRxP6uY-29" value="" style="group" vertex="1" connectable="0" parent="1">
          <mxGeometry x="64" y="144" width="55" height="30" as="geometry" />
        </mxCell>
        <mxCell id="T-6fgTQiSkieGNRxP6uY-30" value="" style="group" vertex="1" connectable="0" parent="T-6fgTQiSkieGNRxP6uY-29">
          <mxGeometry x="5" y="5" width="50" height="20" as="geometry" />
        </mxCell>
        <mxCell id="T-6fgTQiSkieGNRxP6uY-31" value="" style="endArrow=none;html=1;rounded=0;" edge="1" parent="T-6fgTQiSkieGNRxP6uY-30">
          <mxGeometry width="50" height="50" relative="1" as="geometry">
            <mxPoint as="sourcePoint" />
            <mxPoint x="40" as="targetPoint" />
          </mxGeometry>
        </mxCell>
        <mxCell id="T-6fgTQiSkieGNRxP6uY-32" value="" style="endArrow=none;html=1;rounded=0;" edge="1" parent="T-6fgTQiSkieGNRxP6uY-30">
          <mxGeometry width="50" height="50" relative="1" as="geometry">
            <mxPoint y="20" as="sourcePoint" />
            <mxPoint x="40" y="20" as="targetPoint" />
          </mxGeometry>
        </mxCell>
        <mxCell id="T-6fgTQiSkieGNRxP6uY-33" value="" style="endArrow=none;html=1;rounded=0;" edge="1" parent="T-6fgTQiSkieGNRxP6uY-30">
          <mxGeometry width="50" height="50" relative="1" as="geometry">
            <mxPoint x="50" y="10" as="sourcePoint" />
            <mxPoint x="40" as="targetPoint" />
          </mxGeometry>
        </mxCell>
        <mxCell id="T-6fgTQiSkieGNRxP6uY-34" value="" style="endArrow=none;html=1;rounded=0;" edge="1" parent="T-6fgTQiSkieGNRxP6uY-30">
          <mxGeometry width="50" height="50" relative="1" as="geometry">
            <mxPoint x="40" y="20" as="sourcePoint" />
            <mxPoint x="50" y="10" as="targetPoint" />
          </mxGeometry>
        </mxCell>
        <mxCell id="T-6fgTQiSkieGNRxP6uY-35" value="" style="endArrow=none;html=1;rounded=0;" edge="1" parent="T-6fgTQiSkieGNRxP6uY-30">
          <mxGeometry width="50" height="50" relative="1" as="geometry">
            <mxPoint y="20" as="sourcePoint" />
            <mxPoint as="targetPoint" />
          </mxGeometry>
        </mxCell>
        <mxCell id="T-6fgTQiSkieGNRxP6uY-36" value="o_x0" style="text;html=1;align=center;verticalAlign=middle;resizable=0;points=[];autosize=1;strokeColor=none;fillColor=none;" vertex="1" parent="T-6fgTQiSkieGNRxP6uY-29">
          <mxGeometry width="50" height="30" as="geometry" />
        </mxCell>
        <mxCell id="T-6fgTQiSkieGNRxP6uY-37" style="edgeStyle=orthogonalEdgeStyle;rounded=0;orthogonalLoop=1;jettySize=auto;html=1;entryX=0.5;entryY=0;entryDx=0;entryDy=0;fontSize=12;endArrow=classic;endFill=1;" edge="1" parent="1" source="T-6fgTQiSkieGNRxP6uY-36" target="T-6fgTQiSkieGNRxP6uY-19">
          <mxGeometry relative="1" as="geometry" />
        </mxCell>
      </root>
    </mxGraphModel>
  </diagram>
</mxfile>
